<svg xmlns="http://www.w3.org/2000/svg" viewBox="0 0 64 64" role="img" aria-label="Ursa Laboratories favicon">
  <defs>
    <linearGradient id="bg" x1="10" y1="8" x2="54" y2="56" gradientUnits="userSpaceOnUse">
      <stop offset="0" stop-color="#102a56" />
      <stop offset="0.58" stop-color="#0b1f42" />
      <stop offset="1" stop-color="#07182f" />
    </linearGradient>
    <radialGradient id="highlight" cx="0" cy="0" r="1" gradientUnits="userSpaceOnUse" gradientTransform="translate(24 18) rotate(49) scale(28 24)">
      <stop offset="0" stop-color="#2c67d9" stop-opacity="0.22" />
      <stop offset="1" stop-color="#2c67d9" stop-opacity="0" />
    </radialGradient>
    <linearGradient id="monogram" x1="20" y1="18" x2="44" y2="47" gradientUnits="userSpaceOnUse">
      <stop offset="0" stop-color="#f7fbff" />
      <stop offset="1" stop-color="#c8daf4" />
    </linearGradient>
    <linearGradient id="gold" x1="43" y1="12" x2="52" y2="21" gradientUnits="userSpaceOnUse">
      <stop offset="0" stop-color="#fbe2a0" />
      <stop offset="1" stop-color="#f5b84b" />
    </linearGradient>
    <filter id="soft-glow" x="-40%" y="-40%" width="180%" height="180%">
      <feGaussianBlur stdDeviation="1.2" result="blur" />
      <feMerge>
        <feMergeNode in="blur" />
        <feMergeNode in="SourceGraphic" />
      </feMerge>
    </filter>
  </defs>

  <rect width="64" height="64" rx="16" fill="url(#bg)" />
  <rect x="3" y="3" width="58" height="58" rx="13" fill="none" stroke="#f5b84b" stroke-opacity="0.2" />
  <circle cx="24" cy="18" r="28" fill="url(#highlight)" />

  <path
    d="M21 20v16c0 6.08 4.92 11 11 11s11-4.92 11-11V20"
    fill="none"
    stroke="url(#monogram)"
    stroke-linecap="round"
    stroke-linejoin="round"
    stroke-width="6"
    filter="url(#soft-glow)"
  />

  <path
    d="M47 14l1.4 3.1 3.1 1.4-3.1 1.4L47 23l-1.4-3.1-3.1-1.4 3.1-1.4L47 14Z"
    fill="url(#gold)"
  />
</svg>
